<?xml version="1.0" encoding="utf-8"?><svg xmlns="http://www.w3.org/2000/svg" xmlns:xlink="http://www.w3.org/1999/xlink"><symbol viewBox="0 0 32 32" id="cart" xmlns="http://www.w3.org/2000/svg"><path d="M28.8 10.83l-1.23 10a1 1 0 01-1 .88h-17a1 1 0 01-1-.88L7.16 9.71l-.48-2.88a.51.51 0 00-.5-.42H3.83a.63.63 0 010-1.26h3.25a1 1 0 011 .83l.62 3.73h19.11a1 1 0 01.99 1.12zm-5.75 12a2 2 0 00-1.93 1.5H15a2 2 0 100 1h6.14a2 2 0 101.93-2.5z" data-name="Layer 17"/></symbol><symbol viewBox="0 0 128 128" id="dish" xmlns="http://www.w3.org/2000/svg"><path d="M122.1 84.3h-9.6C111.6 60.5 93.9 41 71 37.2V35c0-3.4-2.8-6.2-6.2-6.2-3.4 0-6.2 2.8-6.2 6.2v1.7c-24.8 2.1-44.4 22.5-45.3 47.6H7.6c-.9 0-1.6.8-1.6 1.9 0 1 .7 1.9 1.6 1.9H122c.9 0 1.6-.8 1.6-1.9.1-1.1-.7-1.9-1.5-1.9zM17 84.3c1-24.4 21.2-44 45.9-44s44.9 19.6 45.9 44H17zm47.8-51.8c1.4 0 2.5 1.1 2.5 2.5v1.7c-1.5-.1-2.9-.2-4.4-.2h-.5V35c0-1.3 1.1-2.5 2.4-2.5z"/><path d="M87.2 51c-1-.2-2 .4-2.2 1.5-.2 1 .4 2 1.4 2.2.3.1 6.5 1.5 9.6 10.6.3.8 1 1.3 1.8 1.3.2 0 .4 0 .6-.1 1-.3 1.5-1.4 1.2-2.4C95.8 52.8 87.6 51 87.2 51z"/></symbol><symbol viewBox="0 0 24 24" id="heart" xmlns="http://www.w3.org/2000/svg"><path d="M12 21c-.3 0-.6-.1-.7-.3l-7.4-8.1c-1.8-2-1.8-5.1.2-7 1-1 2.4-1.6 3.9-1.5 1.4.1 2.8.8 3.7 1.9l.3.4.4-.4c.9-1.1 2.3-1.8 3.7-1.9s2.9.5 3.9 1.5c1.9 1.9 2 5 .2 7l-7.4 8.1c-.2.2-.5.3-.8.3zM7.7 6c-.9 0-1.6.4-2.2.9-1.2 1.2-1.2 3-.1 4.3l6.6 7.3 6.6-7.3c1.1-1.2 1.1-3.1-.1-4.3-.6-.6-1.5-1-2.4-.9-.9 0-1.7.5-2.2 1.2l-1.1 1.4c-.4.5-1.2.5-1.6 0l-1.1-1.4C9.5 6.5 8.7 6.1 7.8 6z"/></symbol><symbol viewBox="0 0 16 16" id="info" xmlns="http://www.w3.org/2000/svg"><path fill-rule="evenodd" clip-rule="evenodd" d="M8.031 2a1 1 0 00-1 1v6a1 1 0 102 0V3a1 1 0 00-1-1zm0 11.969a1 1 0 100-2 1 1 0 000 2z"/></symbol><symbol fill-rule="evenodd" clip-rule="evenodd" viewBox="0 0 24 24" id="search" xmlns="http://www.w3.org/2000/svg"><path d="M15.853 16.56A9.458 9.458 0 019.5 19C4.257 19 0 14.743 0 9.5S4.257 0 9.5 0 19 4.257 19 9.5c0 2.442-.923 4.67-2.44 6.353l7.44 7.44-.707.707-7.44-7.44zM9.5 1C14.191 1 18 4.809 18 9.5S14.191 18 9.5 18 1 14.191 1 9.5 4.809 1 9.5 1z"/></symbol><symbol viewBox="0 0 32 32" id="user" xmlns="http://www.w3.org/2000/svg"><path d="M16 15a5 5 0 10-5-5 5.006 5.006 0 005 5zm0-8a3 3 0 11-3 3 3.003 3.003 0 013-3zm0 9A10.011 10.011 0 006 26a1 1 0 002 0 8 8 0 0116 0 1 1 0 002 0 10.011 10.011 0 00-10-10z" data-name="User"/></symbol></svg>